<svg width="55" height="60" viewBox="0 0 55 60" fill="none" xmlns="http://www.w3.org/2000/svg">
<g clip-path="url(#clip0_109_5067)">
<path d="M26.625 36C28.956 36 31.2346 35.4135 33.1728 34.3147C35.1109 33.2159 36.6215 31.6541 37.5136 29.8268C38.4056 27.9996 38.639 25.9889 38.1843 24.0491C37.7295 22.1093 36.607 20.3275 34.9588 18.9289C33.3105 17.5304 31.2105 16.578 28.9243 16.1922C26.6381 15.8063 24.2684 16.0043 22.1148 16.7612C19.9612 17.5181 18.1206 18.7998 16.8255 20.4443C15.5305 22.0888 14.8393 24.0222 14.8393 26C14.8393 28.6522 16.081 31.1957 18.2912 33.0711C20.5015 34.9464 23.4992 36 26.625 36ZM44.3036 61C45.085 61 45.8344 60.7366 46.387 60.2678C46.9396 59.7989 47.25 59.163 47.25 58.5C47.25 53.8587 45.077 49.4075 41.2091 46.1256C37.3411 42.8438 32.0951 41 26.625 41C21.1549 41 15.9089 42.8438 12.0409 46.1256C8.17298 49.4075 6 53.8587 6 58.5C6 59.163 6.31043 59.7989 6.86299 60.2678C7.41555 60.7366 8.16499 61 8.94643 61H44.3036Z" fill="black"/>
</g>
<defs>
<clipPath id="clip0_109_5067">
<rect width="55" height="60" fill="white"/>
</clipPath>
</defs>
</svg>
